<svg width="180" height="180" xmlns="http://www.w3.org/2000/svg" xmlns:xlink="http://www.w3.org/1999/xlink" fill-rule="evenodd" clip-rule="evenodd" overflow="hidden"><g><path d="M-0.5-0.5C59.5-0.5 119.5-0.5 179.5-0.5 179.5 59.5 179.5 119.5 179.5 179.5 119.5 179.5 59.5 179.5-0.5 179.5-0.5 119.5-0.5 59.5-0.5-0.5Z" fill="#CAEAFE"/></g><g><path d="M86.5 2.5C95.0674 2.88992 98.5674 7.22325 97 15.5 91.3029 22.0784 85.6363 22.0784 80 15.5 79.3333 12.8333 79.3333 10.1667 80 7.5 81.9651 5.44965 84.1318 3.78299 86.5 2.5Z" fill="#1C8170"/></g><g><path d="M82.5 25.5C86.8183 26.7537 91.1516 26.7537 95.5 25.5 95.6666 38.5043 95.4999 51.5043 95 64.5 91.7968 70.1356 87.7968 70.8023 83 66.5 82.5001 52.8374 82.3334 39.1707 82.5 25.5Z" fill="#208271"/></g><g><path d="M99.5 51.5C98.8005 55.7978 98.4672 60.1311 98.5 64.5 97.8401 63.036 97.5068 61.3693 97.5 59.5 97.3817 56.5143 98.0483 53.8476 99.5 51.5Z" fill="#3F94C9"/></g><g><path d="M56.5 29.5C63.4101 34.9043 69.9101 40.9043 76 47.5 82.7063 61.7131 79.2063 72.5464 65.5 80 57.4404 82.7333 50.1071 81.4 43.5 76 38.3182 70.9853 33.3182 65.8186 28.5 60.5 30.8242 57.177 33.4908 54.177 36.5 51.5 42.6896 56.7669 48.6896 62.2669 54.5 68 63.4998 68.665 67.3331 64.4984 66 55.5 60.3184 49.9854 54.8184 44.3187 49.5 38.5 52.2394 35.7673 54.5727 32.7673 56.5 29.5Z" fill="#0D75BB"/></g><g><path d="M98.5 64.5C98.4672 60.1311 98.8005 55.7978 99.5 51.5 105.043 43.2837 111.709 35.9503 119.5 29.5 122.167 32.5 124.833 35.5 127.5 38.5 122.515 43.9853 117.348 49.3187 112 54.5 109.219 60.0438 110.386 64.5438 115.5 68 117.833 68.6667 120.167 68.6667 122.5 68 128.024 61.9755 134.024 56.4755 140.5 51.5 143.138 54.4744 145.805 57.4744 148.5 60.5 142.611 67.5579 135.944 73.7246 128.5 79 113.647 84.0728 103.647 79.2395 98.5 64.5Z" fill="#0875BB"/></g><g><path d="M113.5 83.5C126.673 82.1746 140.006 82.1746 153.5 83.5 153.376 84.1067 153.043 84.44 152.5 84.5 139.677 83.5045 126.677 83.1712 113.5 83.5Z" fill="#78B6AD"/></g><g><path d="M64.5 84.5C51.3226 84.1712 38.3226 84.5045 25.5 85.5 24.9569 85.44 24.6236 85.1067 24.5 84.5 37.9941 83.1746 51.3274 83.1746 64.5 84.5Z" fill="#4C9E91"/></g><g><path d="M161.5 80.5C169.866 79.7159 174.366 83.3826 175 91.5 169.42 100.443 163.42 100.776 157 92.5 155.976 87.5482 157.476 83.5482 161.5 80.5Z" fill="#1B816F"/></g><g><path d="M6.5 80.5C15.9976 79.1727 20.4976 83.1727 20 92.5 15.3923 99.54 10.059 100.207 4 94.5 2.57834 91.9699 2.24501 89.3033 3 86.5 4.42132 84.5952 5.58798 82.5952 6.5 80.5Z" fill="#1A806F"/></g><g><path d="M64.5 84.5C67.1381 85.2415 68.4714 87.0749 68.5 90 68.4018 92.8729 67.0684 94.8729 64.5 96 51.5043 96.4999 38.5043 96.6666 25.5 96.5 26.5792 92.8013 26.5792 89.1346 25.5 85.5 38.3226 84.5045 51.3226 84.1712 64.5 84.5Z" fill="#19806F"/></g><g><path d="M113.5 83.5C126.677 83.1712 139.677 83.5045 152.5 84.5 152.5 84.8333 152.5 85.1667 152.5 85.5 151.41 88.6812 151.41 92.0145 152.5 95.5 139.833 95.5 127.167 95.5 114.5 95.5 109.922 94.1568 108.422 91.1568 110 86.5 111.039 85.2899 112.206 84.2899 113.5 83.5Z" fill="#167F6D"/></g><g><path d="M152.5 85.5C152.942 89.1545 153.276 92.8212 153.5 96.5 140.323 96.8288 127.323 96.4955 114.5 95.5 127.167 95.5 139.833 95.5 152.5 95.5 151.41 92.0145 151.41 88.6812 152.5 85.5Z" fill="#8EC7CB"/></g><g><path d="M85.5 153.5C83.5191 140.876 82.8524 127.876 83.5 114.5 86.8499 109.64 90.6832 109.307 95 113.5 95.6667 127.167 95.6667 140.833 95 154.5 91.9433 153.549 88.7766 153.216 85.5 153.5Z" fill="#177F6E"/></g><g><path d="M147.5 117.5C147.611 118.117 147.944 118.617 148.5 119 145.961 121.37 143.628 123.87 141.5 126.5 140.749 127.573 139.749 127.74 138.5 127 133.135 121.301 127.469 115.967 121.5 111 119.5 110.333 117.5 110.333 115.5 111 110.386 114.456 109.219 118.956 112 124.5 117.348 129.681 122.515 135.015 127.5 140.5 124.85 143.651 122.016 146.651 119 149.5 113.883 144.26 108.549 139.26 103 134.5 94.227 121.219 96.0603 109.719 108.5 100 116.528 96.2946 124.195 96.9613 131.5 102 136.702 107.37 142.035 112.536 147.5 117.5Z" fill="#0C75BB"/></g><g><path d="M147.5 117.5C149.225 117.843 149.725 118.843 149 120.5 146.894 123.118 144.394 125.118 141.5 126.5 143.628 123.87 145.961 121.37 148.5 119 147.944 118.617 147.611 118.117 147.5 117.5Z" fill="#8CC2E4"/></g><g><path d="M83.5 114.5C82.8524 127.876 83.5191 140.876 85.5 153.5 84.791 154.404 83.791 154.737 82.5 154.5 82.1711 140.99 82.5044 127.656 83.5 114.5Z" fill="#71B2A8"/></g><g><path d="M51.5 98.5C67.8343 96.4861 77.501 103.486 80.5 119.5 80.0681 124.24 78.5681 128.574 76 132.5 70.3188 138.348 64.4854 144.015 58.5 149.5 55.2992 147.134 52.6325 144.3 50.5 141 55.987 134.845 61.487 128.678 67 122.5 67.8483 113.361 63.6816 109.861 54.5 112 48.9854 117.682 43.3187 123.182 37.5 128.5 34.1667 125.833 31.1667 122.833 28.5 119.5 35.2861 111.374 42.9528 104.374 51.5 98.5Z" fill="#0D75BB"/></g><g><path d="M84.5 158.5C94.1583 156.993 98.325 160.993 97 170.5 91.3319 178.404 85.6652 178.404 80 170.5 78.4783 165.241 79.9783 161.241 84.5 158.5Z" fill="#1D8270"/></g></svg>